<svg xmlns="http://www.w3.org/2000/svg" xmlns:xlink="http://www.w3.org/1999/xlink" width="250" zoomAndPan="magnify" viewBox="0 0 187.5 187.499992" height="250" preserveAspectRatio="xMidYMid meet" version="1.0"><defs><clipPath id="8024e1764a"><path d="M 14 41.347656 L 173 41.347656 L 173 96 L 14 96 Z M 14 41.347656 " clip-rule="nonzero"/></clipPath></defs><path fill="#ffffff" d="M 0 0 L 187 0 L 187 187 L 0 187 Z M 0 0 " fill-opacity="1" fill-rule="nonzero"/><path fill="#ffffff" d="M 0 0 L 187 0 L 187 187 L 0 187 Z M 0 0 " fill-opacity="1" fill-rule="nonzero"/><g clip-path="url(#8024e1764a)"><path fill="#252f3e" d="M 55.882812 79.28125 C 55.882812 81.394531 56.109375 83.109375 56.511719 84.367188 C 56.96875 85.621094 57.542969 86.992188 58.34375 88.480469 C 58.632812 88.9375 58.746094 89.394531 58.746094 89.792969 C 58.746094 90.363281 58.402344 90.933594 57.65625 91.507812 L 54.050781 93.90625 C 53.535156 94.25 53.019531 94.417969 52.558594 94.417969 C 51.988281 94.417969 51.414062 94.132812 50.839844 93.621094 C 50.039062 92.761719 49.351562 91.847656 48.777344 90.933594 C 48.207031 89.964844 47.632812 88.878906 47.003906 87.566406 C 42.535156 92.820312 36.921875 95.449219 30.164062 95.449219 C 25.351562 95.449219 21.511719 94.078125 18.707031 91.335938 C 15.898438 88.59375 14.46875 84.9375 14.46875 80.367188 C 14.46875 75.511719 16.1875 71.570312 19.679688 68.597656 C 23.175781 65.628906 27.8125 64.140625 33.714844 64.140625 C 35.660156 64.140625 37.667969 64.3125 39.785156 64.597656 C 41.90625 64.886719 44.082031 65.34375 46.375 65.855469 L 46.375 61.6875 C 46.375 57.34375 45.457031 54.316406 43.679688 52.546875 C 41.847656 50.773438 38.753906 49.917969 34.34375 49.917969 C 32.339844 49.917969 30.277344 50.144531 28.15625 50.660156 C 26.039062 51.175781 23.976562 51.800781 21.972656 52.601562 C 21.054688 53.003906 20.367188 53.230469 19.96875 53.34375 C 19.566406 53.460938 19.28125 53.515625 19.050781 53.515625 C 18.25 53.515625 17.847656 52.945312 17.847656 51.746094 L 17.847656 48.945312 C 17.847656 48.03125 17.960938 47.347656 18.25 46.945312 C 18.535156 46.546875 19.050781 46.148438 19.851562 45.746094 C 21.855469 44.71875 24.261719 43.863281 27.070312 43.175781 C 29.875 42.433594 32.855469 42.089844 36.003906 42.089844 C 42.820312 42.089844 47.804688 43.632812 51.011719 46.71875 C 54.164062 49.804688 55.765625 54.488281 55.765625 60.773438 L 55.765625 79.28125 Z M 32.625 87.964844 C 34.515625 87.964844 36.464844 87.621094 38.527344 86.9375 C 40.589844 86.25 42.421875 84.992188 43.96875 83.28125 C 44.882812 82.195312 45.570312 80.996094 45.914062 79.625 C 46.257812 78.253906 46.488281 76.597656 46.488281 74.652344 L 46.488281 72.253906 C 44.828125 71.855469 43.050781 71.511719 41.21875 71.28125 C 39.386719 71.054688 37.609375 70.941406 35.832031 70.941406 C 31.996094 70.941406 29.1875 71.683594 27.300781 73.226562 C 25.410156 74.769531 24.492188 76.9375 24.492188 79.796875 C 24.492188 82.480469 25.179688 84.480469 26.613281 85.851562 C 27.984375 87.277344 29.992188 87.964844 32.625 87.964844 Z M 78.621094 94.132812 C 77.589844 94.132812 76.902344 93.960938 76.445312 93.5625 C 75.988281 93.21875 75.585938 92.421875 75.242188 91.335938 L 61.78125 47.175781 C 61.4375 46.03125 61.265625 45.289062 61.265625 44.890625 C 61.265625 43.976562 61.726562 43.460938 62.640625 43.460938 L 68.253906 43.460938 C 69.34375 43.460938 70.085938 43.632812 70.488281 44.03125 C 70.945312 44.375 71.289062 45.175781 71.632812 46.261719 L 81.257812 84.078125 L 90.191406 46.261719 C 90.480469 45.117188 90.824219 44.375 91.28125 44.03125 C 91.738281 43.691406 92.542969 43.460938 93.574219 43.460938 L 98.15625 43.460938 C 99.242188 43.460938 99.988281 43.632812 100.445312 44.03125 C 100.90625 44.375 101.304688 45.175781 101.535156 46.261719 L 110.585938 84.535156 L 120.496094 46.261719 C 120.839844 45.117188 121.238281 44.375 121.640625 44.03125 C 122.097656 43.691406 122.84375 43.460938 123.875 43.460938 L 129.203125 43.460938 C 130.117188 43.460938 130.632812 43.917969 130.632812 44.890625 C 130.632812 45.175781 130.574219 45.460938 130.519531 45.804688 C 130.460938 46.148438 130.347656 46.605469 130.117188 47.230469 L 116.3125 91.390625 C 115.96875 92.535156 115.570312 93.277344 115.109375 93.621094 C 114.652344 93.960938 113.90625 94.191406 112.933594 94.191406 L 108.007812 94.191406 C 106.917969 94.191406 106.175781 94.019531 105.714844 93.621094 C 105.257812 93.21875 104.855469 92.476562 104.628906 91.335938 L 95.75 54.488281 L 86.929688 91.277344 C 86.640625 92.421875 86.296875 93.164062 85.839844 93.5625 C 85.382812 93.960938 84.578125 94.132812 83.546875 94.132812 Z M 152.226562 95.675781 C 149.25 95.675781 146.269531 95.332031 143.40625 94.648438 C 140.542969 93.960938 138.308594 93.21875 136.820312 92.363281 C 135.902344 91.847656 135.273438 91.277344 135.042969 90.765625 C 134.816406 90.25 134.699219 89.679688 134.699219 89.164062 L 134.699219 86.25 C 134.699219 85.050781 135.160156 84.480469 136.019531 84.480469 C 136.363281 84.480469 136.707031 84.535156 137.050781 84.652344 C 137.390625 84.765625 137.90625 84.992188 138.480469 85.222656 C 140.429688 86.078125 142.546875 86.765625 144.78125 87.222656 C 147.074219 87.679688 149.308594 87.90625 151.597656 87.90625 C 155.207031 87.90625 158.011719 87.277344 159.960938 86.023438 C 161.910156 84.765625 162.941406 82.9375 162.941406 80.59375 C 162.941406 78.996094 162.425781 77.679688 161.394531 76.597656 C 160.363281 75.511719 158.414062 74.539062 155.609375 73.625 L 147.300781 71.054688 C 143.121094 69.742188 140.027344 67.796875 138.136719 65.226562 C 136.246094 62.714844 135.273438 59.914062 135.273438 56.945312 C 135.273438 54.542969 135.789062 52.429688 136.820312 50.601562 C 137.851562 48.773438 139.226562 47.175781 140.945312 45.917969 C 142.664062 44.605469 144.609375 43.632812 146.902344 42.949219 C 149.191406 42.261719 151.597656 41.976562 154.117188 41.976562 C 155.378906 41.976562 156.695312 42.035156 157.957031 42.203125 C 159.273438 42.375 160.476562 42.605469 161.679688 42.832031 C 162.824219 43.117188 163.914062 43.40625 164.945312 43.746094 C 165.976562 44.089844 166.777344 44.433594 167.351562 44.777344 C 168.152344 45.234375 168.726562 45.691406 169.070312 46.203125 C 169.414062 46.660156 169.585938 47.289062 169.585938 48.089844 L 169.585938 50.773438 C 169.585938 51.972656 169.125 52.601562 168.265625 52.601562 C 167.808594 52.601562 167.0625 52.375 166.089844 51.917969 C 162.824219 50.429688 159.160156 49.6875 155.09375 49.6875 C 151.828125 49.6875 149.25 50.203125 147.472656 51.289062 C 145.699219 52.375 144.78125 54.03125 144.78125 56.371094 C 144.78125 57.972656 145.355469 59.34375 146.5 60.429688 C 147.644531 61.515625 149.765625 62.601562 152.800781 63.570312 L 160.933594 66.140625 C 165.058594 67.457031 168.039062 69.285156 169.8125 71.625 C 171.589844 73.96875 172.449219 76.652344 172.449219 79.625 C 172.449219 82.082031 171.933594 84.308594 170.960938 86.25 C 169.929688 88.191406 168.554688 89.90625 166.777344 91.277344 C 165 92.707031 162.882812 93.734375 160.417969 94.476562 C 157.839844 95.277344 155.148438 95.675781 152.226562 95.675781 Z M 152.226562 95.675781 " fill-opacity="1" fill-rule="nonzero"/></g><path fill="#ff9900" d="M 163.054688 123.441406 C 144.207031 137.324219 116.828125 144.691406 93.285156 144.691406 C 60.292969 144.691406 30.5625 132.523438 8.109375 112.300781 C 6.335938 110.703125 7.9375 108.53125 10.058594 109.789062 C 34.34375 123.839844 64.300781 132.351562 95.292969 132.351562 C 116.199219 132.351562 139.167969 128.011719 160.304688 119.097656 C 163.457031 117.671875 166.148438 121.15625 163.054688 123.441406 Z M 163.054688 123.441406 " fill-opacity="1" fill-rule="evenodd"/><path fill="#ff9900" d="M 170.902344 114.527344 C 168.496094 111.445312 154.976562 113.042969 148.847656 113.785156 C 147.015625 114.015625 146.730469 112.414062 148.390625 111.214844 C 159.160156 103.675781 176.859375 105.84375 178.921875 108.359375 C 180.984375 110.929688 178.347656 128.582031 168.265625 137.039062 C 166.71875 138.351562 165.230469 137.664062 165.917969 135.953125 C 168.210938 130.296875 173.308594 117.558594 170.902344 114.527344 Z M 170.902344 114.527344 " fill-opacity="1" fill-rule="evenodd"/></svg>