<svg xmlns="http://www.w3.org/2000/svg" xmlns:xlink="http://www.w3.org/1999/xlink" width="250" zoomAndPan="magnify" viewBox="0 0 187.5 187.499992" height="250" preserveAspectRatio="xMidYMid meet" version="1.0"><defs><clipPath id="79f6645133"><path d="M 1 111 L 170 111 L 170 149.769531 L 1 149.769531 Z M 1 111 " clip-rule="nonzero"/></clipPath></defs><path fill="#252f3e" d="M 53.183594 78.503906 C 53.183594 80.785156 53.429688 82.636719 53.863281 83.992188 C 54.351562 85.347656 54.96875 86.828125 55.828125 88.429688 C 56.136719 88.921875 56.257812 89.417969 56.257812 89.847656 C 56.257812 90.464844 55.890625 91.082031 55.089844 91.699219 L 51.21875 94.289062 C 50.664062 94.65625 50.113281 94.84375 49.621094 94.84375 C 49.007812 94.84375 48.390625 94.535156 47.777344 93.980469 C 46.917969 93.054688 46.179688 92.066406 45.566406 91.082031 C 44.949219 90.035156 44.335938 88.863281 43.660156 87.445312 C 38.867188 93.117188 32.84375 95.953125 25.589844 95.953125 C 20.429688 95.953125 16.3125 94.472656 13.300781 91.511719 C 10.289062 88.554688 8.753906 84.609375 8.753906 79.675781 C 8.753906 74.4375 10.597656 70.183594 14.34375 66.976562 C 18.09375 63.769531 23.070312 62.167969 29.402344 62.167969 C 31.492188 62.167969 33.640625 62.351562 35.917969 62.660156 C 38.191406 62.96875 40.527344 63.460938 42.984375 64.019531 L 42.984375 59.515625 C 42.984375 54.832031 42 51.566406 40.09375 49.652344 C 38.128906 47.742188 34.808594 46.816406 30.078125 46.816406 C 27.925781 46.816406 25.714844 47.0625 23.441406 47.617188 C 21.167969 48.175781 18.953125 48.851562 16.804688 49.714844 C 15.820312 50.148438 15.082031 50.394531 14.652344 50.515625 C 14.222656 50.640625 13.914062 50.703125 13.667969 50.703125 C 12.808594 50.703125 12.378906 50.085938 12.378906 48.789062 L 12.378906 45.769531 C 12.378906 44.78125 12.5 44.042969 12.808594 43.613281 C 13.117188 43.179688 13.667969 42.75 14.53125 42.316406 C 16.679688 41.207031 19.261719 40.28125 22.273438 39.542969 C 25.285156 38.742188 28.480469 38.371094 31.859375 38.371094 C 39.171875 38.371094 44.519531 40.035156 47.960938 43.367188 C 51.339844 46.695312 53.0625 51.75 53.0625 58.53125 L 53.0625 78.503906 Z M 28.234375 87.875 C 30.261719 87.875 32.351562 87.503906 34.5625 86.765625 C 36.777344 86.027344 38.742188 84.671875 40.402344 82.820312 C 41.386719 81.648438 42.125 80.355469 42.492188 78.875 C 42.859375 77.394531 43.105469 75.609375 43.105469 73.511719 L 43.105469 70.921875 C 41.324219 70.492188 39.417969 70.121094 37.453125 69.875 C 35.484375 69.628906 33.582031 69.503906 31.675781 69.503906 C 27.558594 69.503906 24.546875 70.304688 22.519531 71.96875 C 20.492188 73.636719 19.507812 75.976562 19.507812 79.058594 C 19.507812 81.957031 20.246094 84.113281 21.78125 85.59375 C 23.257812 87.136719 25.40625 87.875 28.234375 87.875 Z M 77.582031 94.535156 C 76.476562 94.535156 75.738281 94.347656 75.25 93.917969 C 74.757812 93.546875 74.328125 92.683594 73.957031 91.511719 L 59.515625 43.859375 C 59.148438 42.625 58.960938 41.824219 58.960938 41.390625 C 58.960938 40.40625 59.453125 39.851562 60.4375 39.851562 L 66.460938 39.851562 C 67.628906 39.851562 68.425781 40.035156 68.855469 40.46875 C 69.347656 40.835938 69.71875 41.699219 70.085938 42.871094 L 80.410156 83.683594 L 89.996094 42.871094 C 90.304688 41.640625 90.671875 40.835938 91.164062 40.46875 C 91.65625 40.097656 92.515625 39.851562 93.625 39.851562 L 98.539062 39.851562 C 99.707031 39.851562 100.507812 40.035156 101 40.46875 C 101.488281 40.835938 101.921875 41.699219 102.164062 42.871094 L 111.875 84.175781 L 122.507812 42.871094 C 122.875 41.640625 123.308594 40.835938 123.738281 40.46875 C 124.230469 40.097656 125.027344 39.851562 126.132812 39.851562 L 131.847656 39.851562 C 132.832031 39.851562 133.386719 40.34375 133.386719 41.390625 C 133.386719 41.699219 133.324219 42.007812 133.261719 42.378906 C 133.203125 42.75 133.078125 43.242188 132.832031 43.921875 L 118.023438 91.574219 C 117.652344 92.808594 117.222656 93.609375 116.730469 93.980469 C 116.238281 94.347656 115.441406 94.59375 114.394531 94.59375 L 109.109375 94.59375 C 107.941406 94.59375 107.144531 94.410156 106.652344 93.980469 C 106.160156 93.546875 105.730469 92.746094 105.484375 91.511719 L 95.957031 51.75 L 86.496094 91.453125 C 86.1875 92.683594 85.820312 93.484375 85.328125 93.917969 C 84.835938 94.347656 83.976562 94.535156 82.867188 94.535156 Z M 156.554688 96.199219 C 153.359375 96.199219 150.164062 95.828125 147.089844 95.089844 C 144.019531 94.347656 141.621094 93.546875 140.023438 92.621094 C 139.039062 92.066406 138.363281 91.453125 138.117188 90.894531 C 137.871094 90.339844 137.75 89.726562 137.75 89.171875 L 137.75 86.027344 C 137.75 84.730469 138.242188 84.113281 139.164062 84.113281 C 139.53125 84.113281 139.898438 84.175781 140.269531 84.300781 C 140.636719 84.421875 141.191406 84.671875 141.804688 84.917969 C 143.894531 85.839844 146.167969 86.582031 148.566406 87.074219 C 151.023438 87.566406 153.421875 87.8125 155.878906 87.8125 C 159.75 87.8125 162.761719 87.136719 164.851562 85.78125 C 166.941406 84.421875 168.046875 82.449219 168.046875 79.921875 C 168.046875 78.195312 167.492188 76.777344 166.386719 75.609375 C 165.28125 74.4375 163.191406 73.386719 160.179688 72.402344 L 151.269531 69.628906 C 146.78125 68.210938 143.464844 66.113281 141.4375 63.339844 C 139.410156 60.625 138.363281 57.605469 138.363281 54.398438 C 138.363281 51.8125 138.917969 49.53125 140.023438 47.558594 C 141.128906 45.585938 142.605469 43.859375 144.449219 42.503906 C 146.292969 41.085938 148.382812 40.035156 150.839844 39.296875 C 153.296875 38.558594 155.878906 38.25 158.582031 38.25 C 159.933594 38.25 161.347656 38.308594 162.699219 38.496094 C 164.113281 38.679688 165.40625 38.925781 166.695312 39.171875 C 167.925781 39.480469 169.089844 39.789062 170.199219 40.160156 C 171.304688 40.53125 172.164062 40.898438 172.777344 41.269531 C 173.640625 41.761719 174.253906 42.253906 174.621094 42.808594 C 174.992188 43.304688 175.175781 43.980469 175.175781 44.84375 L 175.175781 47.742188 C 175.175781 49.035156 174.683594 49.714844 173.761719 49.714844 C 173.269531 49.714844 172.472656 49.46875 171.425781 48.976562 C 167.925781 47.371094 163.992188 46.570312 159.628906 46.570312 C 156.125 46.570312 153.359375 47.125 151.453125 48.296875 C 149.546875 49.46875 148.566406 51.257812 148.566406 53.785156 C 148.566406 55.511719 149.179688 56.988281 150.410156 58.160156 C 151.636719 59.332031 153.910156 60.503906 157.167969 61.550781 L 165.894531 64.324219 C 170.320312 65.742188 173.515625 67.714844 175.421875 70.242188 C 177.328125 72.773438 178.25 75.667969 178.25 78.875 C 178.25 81.527344 177.695312 83.929688 176.652344 86.027344 C 175.542969 88.121094 174.070312 89.972656 172.164062 91.453125 C 170.257812 92.992188 167.984375 94.101562 165.34375 94.902344 C 162.578125 95.765625 159.6875 96.199219 156.554688 96.199219 Z M 156.554688 96.199219 " fill-opacity="1" fill-rule="nonzero"/><g clip-path="url(#79f6645133)"><path fill="#ff9900" d="M 168.167969 126.160156 C 147.949219 141.140625 118.574219 149.09375 93.316406 149.09375 C 57.917969 149.09375 26.023438 135.960938 1.929688 114.136719 C 0.0273438 112.410156 1.746094 110.070312 4.019531 111.425781 C 30.078125 126.589844 62.21875 135.777344 95.46875 135.777344 C 117.898438 135.777344 142.542969 131.089844 165.21875 121.472656 C 168.601562 119.933594 171.488281 123.695312 168.167969 126.160156 Z M 168.167969 126.160156 " fill-opacity="1" fill-rule="evenodd"/></g><path fill="#ff9900" d="M 176.589844 116.542969 C 174.007812 113.214844 159.503906 114.941406 152.929688 115.742188 C 150.960938 115.988281 150.65625 114.261719 152.4375 112.964844 C 163.992188 104.828125 182.980469 107.171875 185.191406 109.882812 C 187.40625 112.660156 184.578125 131.707031 173.761719 140.832031 C 172.101562 142.25 170.503906 141.511719 171.242188 139.660156 C 173.699219 133.558594 179.171875 119.808594 176.589844 116.542969 Z M 176.589844 116.542969 " fill-opacity="1" fill-rule="evenodd"/></svg>